Coordinates
version=1
nRows=17
nColumns=24
inDegrees=yes

Units are S.I. units (second, meters, Newtons, ...)
Angles are in degrees.

endheader
time	pelvis_tilt	pelvis_list	pelvis_rotation	pelvis_tx	pelvis_ty	pelvis_tz	hip_flexion_r	hip_adduction_r	hip_rotation_r	knee_angle_r	ankle_angle_r	subtalar_angle_r	mtp_angle_r	hip_flexion_l	hip_adduction_l	hip_rotation_l	knee_angle_l	ankle_angle_l	subtalar_angle_l	mtp_angle_l	lumbar_extension	lumbar_bending	lumbar_rotation
      1.09583333	     -2.14334567	      1.21371707	     -1.01677530	      0.08085750	      1.03034985	      0.30262015	    -18.34789000	      0.42319858	     -2.99022223	     -9.22078310	     18.20962537	      4.33455618	      4.62860494	     28.91506662	      0.73844945	     -2.47951929	     -3.06900314	     10.37625933	      5.61242961	      1.58486044	     -8.93519958	      0.14851425	      3.05895753
      1.10000000	     -2.07712067	      1.29329181	     -1.15506931	      0.08725030	      1.02974688	      0.30243018	    -18.55438392	      0.23191908	     -3.06408421	     -9.67580648	     18.04966900	      4.59628258	      4.78798371	     28.87937866	      0.82944131	     -2.38815875	     -3.65272739	     10.10806461	      5.45966433	      1.61602716	     -8.98900271	     -0.08494028	      3.19089617
      1.10416667	     -2.07112246	      1.35542621	     -1.28924232	      0.09369184	      1.02909689	      0.30223165	    -18.69351102	      0.06506663	     -3.06547122	    -10.13328391	     17.77423810	      4.68261797	      4.85185977	     28.91732113	      0.90139247	     -2.31234148	     -4.28447361	      9.82279723	      5.34225353	      1.62635306	     -8.95549732	     -0.26597822	      3.19606038
      1.10833333	     -2.05563627	      1.44169233	     -1.38154984	      0.10014463	      1.02848416	      0.30194922	    -18.82532343	     -0.12457703	     -3.19278713	    -10.63076735	     17.52398662	      4.90507704	      6.72836868	     28.90014974	      1.03172974	     -1.96704299	     -4.83559930	      9.35387832	      4.80484820	      2.05153901	     -8.95622838	     -0.48724343	      3.10950054
      1.11250000	     -2.04498175	      1.53126107	     -1.53273562	      0.10664358	      1.02794085	      0.30175275	    -18.92773458	     -0.33911084	     -3.24935444	    -11.16732682	     17.27811737	      5.16318198	      6.89806725	     28.93753189	      1.11748676	     -2.00739680	     -5.52444562	      8.99418097	      4.76613346	      2.08192213	     -8.93490607	     -0.73460732	      3.32699136
      1.11666667	     -2.04240913	      1.63127323	     -1.64902611	      0.11317335	      1.02742703	      0.30150180	    -19.01134359	     -0.55627931	     -3.35970442	    -11.72818141	     16.98981623	      5.39706265	      7.21563765	     28.96260527	      1.23567161	     -1.90378932	     -6.17966862	      8.53891514	      4.49454858	      2.13765518	     -8.89740413	     -0.97730988	      3.33864630
      1.12083333	     -2.02453964	      1.70843907	     -1.76257459	      0.11969976	      1.02700700	      0.30124929	    -19.11240913	     -0.74232145	     -3.38777249	    -12.27175499	     16.55337304	      5.44398382	      7.28644478	     28.99214450	      1.32312749	     -1.88914887	     -6.88940044	      8.11286889	      4.38759779	      2.14386106	     -8.87968211	     -1.17702605	      3.32708988
      1.12500000	     -2.05918044	      1.80979587	     -1.85298435	      0.12626837	      1.02655338	      0.30093366	    -19.12669604	     -0.95805937	     -3.50899410	    -12.87432639	     16.10144993	      5.58062690	     11.14103418	     29.04601259	      1.45558127	     -1.69259916	     -7.53931600	      7.52654311	      3.93910279	      2.77980989	     -8.80459519	     -1.42478388	      3.31809340
      1.12916667	     -2.04346155	      1.93507275	     -1.95484161	      0.13286071	      1.02623517	      0.30064220	    -19.17380492	     -1.20842548	     -3.66035032	    -13.52317010	     15.70522650	      5.82553300	     11.22936908	     29.08121364	      1.59038246	     -1.72616715	     -8.28148906	      7.07116334	      3.78894003	      2.78002488	     -8.78204703	     -1.71494893	      3.34928327
      1.13333333	     -2.05237071	      2.04323708	     -2.04181501	      0.13947093	      1.02595440	      0.30033329	    -19.18928653	     -1.43028563	     -3.74987351	    -14.17036657	     15.17818716	      5.93035206	     11.30200738	     29.14239793	      1.71011553	     -1.73032435	     -9.02936692	      6.58897768	      3.63766525	      2.77621906	     -8.73082250	     -1.97631020	      3.32714074
      1.13750000	     -2.07929697	      2.16905229	     -2.11171555	      0.14607971	      1.02567700	      0.29994590	    -19.13647843	     -1.68267026	     -3.95959217	    -14.92354401	     14.76001329	      6.18804396	     11.57085183	     29.22781747	      1.85992918	     -1.68729517	     -9.79417303	      6.09100799	      3.30929034	      2.77968236	     -8.64964359	     -2.24675127	      3.31335085
      1.14166667	     -2.08371870	      2.28297586	     -2.17397822	      0.15267887	      1.02553358	      0.29954969	    -19.10517053	     -1.91544247	     -4.09864927	    -15.65313812	     14.10944202	      6.24375476	     15.01319028	     29.28126423	      1.99860908	     -1.63700284	    -10.54373261	      5.56890131	      3.02127801	      2.87665775	     -8.61602664	     -2.48463140	      3.26068604
      1.14583333	     -2.06719459	      2.39487526	     -2.23154032	      0.15929031	      1.02546886	      0.29915990	    -19.07691176	     -2.14462597	     -4.23227184	    -16.42193324	     13.48251914	      6.29977933	     15.02955623	     29.34686907	      2.12211207	     -1.71073279	    -11.38745051	      5.21796755	      2.91118252	      2.86911220	     -8.58735066	     -2.74540219	      3.22906686
      1.15000000	     -2.12584993	      2.53029509	     -2.27133671	      0.16593016	      1.02532037	      0.29870012	    -18.91485457	     -2.41064947	     -4.46383560	    -17.30649769	     12.93782893	      6.57449763	     15.18850669	     29.48467512	      2.27673351	     -1.73920159	    -12.21397672	      4.82734593	      2.75574704	      2.85249867	     -8.47565452	     -3.04166600	      3.18190004
      1.15416667	     -2.12655049	      2.65621579	     -2.30564057	      0.17255626	      1.02535401	      0.29825015	    -18.81408215	     -2.65857197	     -4.63386340	    -18.16834396	     12.23388508	      6.67927211	     15.30577637	     29.55478671	      2.42170262	     -1.77040592	    -13.03856769	      4.47623175	      2.63506129	      2.83680665	     -8.44070961	     -3.33030976	      3.12722713
      1.15833333	     -2.17653075	      2.78647661	     -2.32983563	      0.17916472	      1.02533046	      0.29771546	    -18.59616781	     -2.92922949	     -4.89711293	    -19.16537148	     11.64581021	      6.90833559	     15.64666032	     29.68387870	      2.57671486	     -1.79786293	    -13.87939264	      4.16045501	      2.46330713	      2.80083086	     -8.33454532	     -3.58368083	      3.05394354
      1.16250000	     -2.13168614	      2.93354936	     -2.34254146	      0.18574118	      1.02553951	      0.29718380	    -18.47855608	     -3.21357869	     -5.13325318	    -20.13217936	     10.84160835	      7.00304441	     19.60214644	     29.68939861	      2.76009263	     -1.79213068	    -14.67994579	      3.87870148	      2.26746632	      2.38630596	     -8.36629718	     -3.88522050	      2.95339563
